<?xml version="1.0" standalone="no"?>
<!DOCTYPE svg PUBLIC "-//W3C//DTD SVG 20010904//EN"
 "http://www.w3.org/TR/2001/REC-SVG-20010904/DTD/svg10.dtd">
<svg version="1.0" xmlns="http://www.w3.org/2000/svg"
 width="200.000000pt" height="200.000000pt" viewBox="0 0 200.000000 200.000000"
 preserveAspectRatio="xMidYMid meet">

<g transform="translate(0.000000,200.000000) scale(0.100000,-0.100000)"
fill="#000000" stroke="none">
<path d="M1550 1506 c0 -19 5 -38 10 -41 6 -4 10 10 10 34 0 23 -4 41 -10 41
-5 0 -10 -15 -10 -34z"/>
<path d="M1440 1482 c0 -14 46 -53 53 -45 4 3 -3 17 -15 30 -22 23 -38 30 -38
15z"/>
<path d="M1642 1467 c-12 -13 -19 -27 -15 -30 7 -8 53 31 53 45 0 15 -16 8
-38 -15z"/>
<path d="M1533 1430 c-23 -10 -43 -39 -43 -65 0 -23 45 -65 70 -65 12 0 32 11
45 25 14 13 25 34 25 45 0 23 -42 70 -62 69 -7 0 -23 -4 -35 -9z m67 -40 c20
-38 -22 -80 -60 -60 -29 16 -27 68 3 79 27 10 44 4 57 -19z"/>
<path d="M1390 1370 c0 -5 15 -10 34 -10 19 0 38 5 41 10 4 6 -10 10 -34 10
-23 0 -41 -4 -41 -10z"/>
<path d="M1655 1370 c3 -5 22 -10 41 -10 19 0 34 5 34 10 0 6 -18 10 -41 10
-24 0 -38 -4 -34 -10z"/>
<path d="M1131 1283 c8 -21 -4 -60 -68 -229 l-78 -204 -133 0 -133 0 3 38 3
37 78 3 c46 2 77 7 77 14 0 21 -155 358 -164 355 -10 -3 -166 -335 -166 -354
0 -10 19 -13 75 -13 l75 0 0 -40 0 -40 -67 0 c-71 0 -109 -12 -78 -24 27 -10
878 -7 895 4 13 8 13 10 0 14 -8 3 -40 7 -70 8 l-54 3 -78 200 c-52 132 -77
209 -74 226 4 23 2 26 -24 27 -27 1 -28 -1 -19 -25z m-445 -110 c-8 -15 -15
-25 -16 -21 0 12 23 58 27 54 3 -2 -2 -17 -11 -33z m422 -235 c-32 -87 -33
-88 -66 -88 -23 0 -32 4 -29 13 2 6 9 12 15 12 11 0 41 34 42 48 0 4 -7 7 -16
7 -11 0 -14 5 -9 18 4 9 25 67 48 127 l42 110 3 -79 c3 -70 -1 -91 -30 -168z
m115 97 c77 -198 74 -185 39 -185 -29 0 -32 5 -62 83 -25 61 -34 103 -38 167
-2 47 -2 83 1 80 3 -3 30 -68 60 -145z m-589 14 c-34 -81 -54 -115 -54 -92 0
15 81 185 86 181 2 -3 -12 -42 -32 -89z"/>
<path d="M1460 1285 c-13 -14 -20 -28 -17 -32 8 -7 57 35 57 49 0 15 -16 8
-40 -17z"/>
<path d="M1620 1302 c0 -14 49 -56 57 -49 3 4 -4 18 -17 32 -24 25 -40 32 -40
17z"/>
<path d="M1550 1240 c0 -22 5 -40 10 -40 6 0 10 18 10 40 0 22 -4 40 -10 40
-5 0 -10 -18 -10 -40z"/>
<path d="M190 761 c0 -5 9 -11 20 -14 18 -5 20 -14 20 -106 0 -61 4 -101 10
-101 6 0 10 42 10 105 l0 105 25 0 c14 0 25 5 25 10 0 6 -25 10 -55 10 -30 0
-55 -4 -55 -9z"/>
<path d="M320 655 c0 -91 3 -115 14 -115 8 0 17 15 21 37 6 32 29 88 42 103
11 12 23 -31 23 -82 0 -47 3 -58 16 -58 14 0 15 7 10 38 -3 20 -6 51 -6 68 0
37 -20 67 -41 59 -8 -3 -22 -18 -32 -33 l-16 -27 -1 63 c0 48 -3 62 -15 62
-12 0 -15 -19 -15 -115z"/>
<path d="M710 655 c0 -96 3 -115 15 -115 10 0 15 10 15 30 0 27 3 30 30 30 27
0 30 -3 30 -30 0 -20 5 -30 15 -30 10 0 15 10 15 33 0 17 3 69 7 115 5 72 4
82 -11 82 -13 0 -16 -12 -16 -70 l0 -70 -36 0 -37 0 6 70 c5 65 4 70 -14 70
-18 0 -19 -8 -19 -115z"/>
<path d="M870 755 c0 -10 7 -15 18 -13 21 4 19 22 -2 26 -10 2 -16 -3 -16 -13z"/>
<path d="M1300 668 c0 -100 11 -152 25 -117 11 30 1 212 -12 217 -10 3 -13
-21 -13 -100z"/>
<path d="M491 694 c-49 -62 -8 -175 57 -159 26 6 52 30 52 47 0 13 -17 9 -30
-7 -18 -22 -46 -18 -64 7 -28 40 -21 48 44 48 52 0 60 3 60 19 0 32 -39 71
-70 71 -19 0 -36 -9 -49 -26z m87 -26 c3 -15 -4 -18 -37 -18 -39 0 -53 14 -34
34 14 14 68 1 71 -16z"/>
<path d="M1170 707 c-28 -14 -40 -47 -17 -47 8 0 18 7 21 16 4 10 15 14 33 12
22 -2 29 -9 31 -30 3 -26 1 -27 -27 -22 -62 13 -106 -49 -65 -90 17 -18 69
-21 79 -6 5 8 11 8 19 1 20 -17 26 -2 26 66 0 55 -4 68 -25 88 -27 28 -39 30
-75 12z m51 -97 c10 -6 19 -17 19 -24 0 -16 -45 -37 -65 -30 -18 7 -20 35 -3
52 15 15 24 15 49 2z"/>
<path d="M1392 704 c-22 -15 -30 -44 -13 -44 5 0 14 7 21 15 24 29 70 11 70
-26 0 -15 -6 -17 -35 -12 -44 7 -75 -17 -75 -59 0 -38 38 -57 80 -41 21 8 30
8 33 -1 10 -27 21 10 21 75 1 63 -2 73 -23 90 -28 23 -49 24 -79 3z m52 -94
c33 -12 33 -33 1 -48 -43 -20 -80 12 -49 43 18 18 16 18 48 5z"/>
<path d="M1707 700 c-15 -12 -27 -26 -27 -31 0 -15 27 -10 34 6 8 22 53 19 66
-4 17 -33 12 -40 -24 -34 -63 10 -103 -35 -72 -82 18 -27 53 -33 87 -15 13 7
19 7 19 0 0 -5 5 -10 10 -10 15 0 13 143 -2 163 -22 27 -61 31 -91 7z m64 -99
l23 -18 -27 -18 c-29 -19 -54 -15 -64 11 -4 11 1 22 12 30 24 18 28 18 56 -5z"/>
<path d="M1530 639 c0 -102 25 -134 72 -92 17 15 18 15 18 -6 0 -12 -5 -31
-11 -43 -9 -16 -17 -19 -45 -13 -34 6 -48 -8 -18 -19 30 -12 61 -6 80 15 15
17 19 40 22 125 5 118 -8 138 -28 43 -7 -33 -21 -70 -30 -82 l-17 -21 -13 24
c-8 15 -10 42 -6 81 6 50 4 59 -9 59 -12 0 -15 -14 -15 -71z"/>
<path d="M870 620 c0 -64 3 -80 15 -80 12 0 15 16 15 80 0 64 -3 80 -15 80
-12 0 -15 -16 -15 -80z"/>
<path d="M940 620 c0 -81 13 -106 25 -47 11 56 26 97 36 97 5 0 9 -29 9 -65 0
-51 3 -65 15 -65 11 0 15 13 15 53 0 49 12 77 32 77 4 0 8 -29 8 -65 0 -65 14
-87 26 -39 9 34 -1 113 -15 127 -9 9 -17 8 -33 -2 -16 -10 -23 -10 -26 -2 -6
17 -40 13 -51 -6 -10 -17 -10 -17 -11 0 0 9 -7 17 -15 17 -12 0 -15 -16 -15
-80z"/>
</g>
</svg>
